PathFileType	4	(X/Y/Z)	s10c0201.trc
DataRate	CameraRate	NumFrames	NumMarkers	Units	OrigDataRate	OrigDataStartFrame	OrigNumFrames
200	200	4	50	mm	200	1750	2000
Frame#	Time	racr			lacr			c7			jug			rlel			rdr			llel			ldr			s2			lic			ric			lasi			rasi			rpsi			lpsi			rgt			lgt			rth1			rth2			rth3			rth4			rlfc			rmfc			rsh1			rsh2			rsh3			rsh4			rlmal			rmmal			rcal			rtoe			rmt5			lth1			lth2			lth4			lth3			llfc			lmfc			llmal			lmmal			lcal			lmt5			lsh1			lsh2			lsh3			lsh4			ltoe			SBIKE			LBIKE			RBIKE			
		X1	Y1	Z1	X2	Y2	Z2	X3	Y3	Z3	X4	Y4	Z4	X5	Y5	Z5	X6	Y6	Z6	X7	Y7	Z7	X8	Y8	Z8	X9	Y9	Z9	X10	Y10	Z10	X11	Y11	Z11	X12	Y12	Z12	X13	Y13	Z13	X14	Y14	Z14	X15	Y15	Z15	X16	Y16	Z16	X17	Y17	Z17	X18	Y18	Z18	X19	Y19	Z19	X20	Y20	Z20	X21	Y21	Z21	X22	Y22	Z22	X23	Y23	Z23	X24	Y24	Z24	X25	Y25	Z25	X26	Y26	Z26	X27	Y27	Z27	X28	Y28	Z28	X29	Y29	Z29	X30	Y30	Z30	X31	Y31	Z31	X32	Y32	Z32	X33	Y33	Z33	X34	Y34	Z34	X35	Y35	Z35	X36	Y36	Z36	X37	Y37	Z37	X38	Y38	Z38	X39	Y39	Z39	X40	Y40	Z40	X41	Y41	Z41	X42	Y42	Z42	X43	Y43	Z43	X44	Y44	Z44	X45	Y45	Z45	X46	Y46	Z46	X47	Y47	Z47	X48	Y48	Z48	X49	Y49	Z49	X50	Y50	Z50	
1750	8.7500	441.773777	1282.628203	-48.720188	405.339740	1247.278321	-358.616303	386.708870	1325.582752	-211.480648	390.324683	1183.797101	-186.432791	434.780043	1028.880285	51.709936	601.053739	913.601198	-29.160735	416.455232	1012.875358	-510.098257	593.328874	908.519873	-426.426310	-123.847591	1096.509892	-227.997978	53.645668	1114.092759	-361.666646	32.829227	1142.293986	-56.330377	81.662961	1036.180716	-322.053255	49.216649	1048.054443	-75.225740	-93.384790	1160.307577	-171.973383	-74.048480	1161.023580	-285.820943	-56.244862	1009.340504	-33.143268	-32.876206	976.582244	-408.821286	53.837287	895.429823	-7.381424	136.189216	863.537462	-19.210295	188.326887	796.374080	-29.657799	156.996057	894.421547	-24.048067	279.351504	732.799637	-47.791547	273.718570	724.456957	-162.828042	238.758436	621.519239	-22.000174	257.550820	535.032463	-34.208107	231.642590	452.953250	-39.782013	289.419089	537.112807	-55.920151	219.758032	355.302277	-54.820208	242.926748	370.529818	-134.985025	166.544426	337.653014	-101.703373	406.291482	300.258081	-104.779200	324.234740	278.505597	-40.283478	66.984587	886.099631	-417.770123	148.172184	859.099512	-402.255652	166.863828	889.274938	-391.992458	206.626419	792.843101	-393.081638	285.336990	722.420537	-372.910243	271.161900	713.018102	-252.904892	-15.693917	499.821152	-378.940859	-3.986434	485.019224	-300.398939	-73.792406	510.784390	-335.233207	8.118158	354.011916	-400.022235	182.493552	663.009481	-407.034779	137.620320	588.225469	-391.849731	58.861985	546.794345	-391.174501	158.175554	570.418694	-365.033474	87.592267	314.823840	-344.896281	-218.335907	833.225404	-213.646641	-104.036427	80.419353	-418.332532	-104.012827	80.356787	-18.290496	
1751	8.7550	442.193579	1281.627939	-50.744136	401.218998	1248.592385	-362.658640	385.668013	1325.554962	-213.599594	388.257238	1183.452719	-190.284590	435.018620	1028.300285	52.381295	600.985411	913.513101	-28.711222	414.779503	1012.705110	-509.191260	593.182530	908.679444	-426.532716	-124.305257	1094.170240	-226.643823	52.513695	1113.459538	-360.613876	33.509518	1138.612556	-55.427125	81.233068	1034.924922	-320.776803	50.294277	1045.508806	-73.240710	-93.836621	1156.987073	-170.129517	-75.451295	1158.405588	-283.749610	-56.629999	1004.241076	-31.620782	-30.791192	975.017859	-408.038371	52.288998	888.759548	-6.311440	134.083436	855.781771	-19.043665	184.817942	787.680175	-30.874639	155.489889	886.262440	-23.549734	274.060800	723.961083	-49.350118	268.530828	715.851134	-163.700174	232.541956	612.160077	-22.885412	252.601712	525.852644	-34.515638	227.829330	443.535558	-40.380984	284.834419	528.269237	-55.635288	217.891060	346.052480	-54.880532	241.304723	361.231360	-135.659347	164.672121	329.160320	-101.832875	403.986865	288.999138	-103.989596	321.645826	268.222436	-40.489184	72.062491	887.657176	-416.593478	154.034714	863.817563	-399.523148	171.436435	894.760745	-389.147339	215.091621	800.100431	-391.404664	293.801815	732.755563	-370.929261	281.850158	721.658514	-250.554020	-8.607027	510.335333	-378.715514	2.329933	494.971777	-300.434532	-66.353118	522.438649	-335.035762	11.891658	363.913793	-400.101287	190.757628	672.645326	-406.450711	144.834301	597.596695	-390.989986	65.845194	556.670392	-390.657717	165.216117	579.648959	-364.259472	90.296915	322.720593	-344.898238	-218.329254	833.236346	-213.603499	-104.032338	80.399527	-418.343451	-103.988822	80.368364	-18.277633	
1752	8.7600	442.554622	1280.462794	-52.832752	396.473308	1251.833339	-366.279479	384.359585	1325.641630	-215.427487	386.425711	1183.074750	-195.093826	435.169520	1027.674687	53.146685	600.927757	913.374325	-28.058595	413.144876	1012.633274	-508.314832	592.986450	908.780891	-426.568497	-124.663141	1091.575246	-224.785619	51.265791	1112.800351	-359.740450	34.267137	1135.009988	-54.522620	80.743999	1033.394437	-319.700449	51.479107	1043.307700	-71.507234	-94.010156	1153.583559	-167.905727	-76.890590	1155.851538	-281.228442	-56.830045	999.218071	-29.830064	-28.496123	973.415869	-407.391255	50.828991	882.410569	-5.277127	131.976082	848.094749	-18.894693	181.131741	779.118929	-32.120544	154.048821	878.329758	-22.960808	268.236934	715.021393	-50.623217	262.925350	706.940853	-164.614578	225.900107	603.060974	-23.489043	247.068119	516.984731	-34.779865	223.389069	434.305768	-41.130398	279.730360	519.777882	-55.261593	215.492704	336.953166	-55.064604	237.895451	350.908137	-135.529562	162.262160	320.818141	-101.980536	401.083089	277.484461	-104.255717	318.409760	258.035178	-40.623048	77.499927	890.276059	-415.550647	159.543656	869.494515	-397.007153	175.510999	901.400557	-386.507711	222.679447	807.952888	-389.108034	302.240705	743.840933	-368.764880	288.791428	729.588425	-248.828259	-0.993694	520.458411	-378.496256	9.214103	504.784743	-300.279687	-58.192095	533.875475	-335.169692	16.444221	373.520852	-400.119158	198.573296	682.101820	-405.171414	152.280614	607.195952	-390.090922	73.197815	566.520387	-390.156812	172.595664	589.118662	-363.353114	93.637865	330.428939	-344.887712	-218.322338	833.235157	-213.536608	-104.053962	80.378516	-418.352851	-103.999938	80.361019	-18.272282	
1753	8.7650	442.908570	1279.194137	-55.034731	392.324881	1254.392450	-370.496033	383.100890	1325.510477	-217.765324	384.832986	1182.587453	-200.078458	435.315578	1027.014872	54.052585	600.894983	913.256514	-27.339376	411.482920	1012.638443	-507.407164	592.754040	908.805091	-426.540346	-125.020517	1088.994603	-223.705536	49.766116	1112.117454	-358.990256	35.258694	1131.324936	-53.644980	80.161996	1031.924961	-318.899116	52.729352	1040.815044	-69.597513	-94.461761	1150.371573	-164.920748	-78.736795	1152.955401	-278.341132	-56.982369	994.252294	-27.760661	-26.634537	972.018837	-406.496170	49.681932	876.361538	-4.064984	129.838963	840.748905	-18.786216	177.294595	770.858234	-33.266943	152.589683	870.447445	-22.576416	262.179781	705.658387	-51.546029	257.141530	698.439057	-165.612529	219.197068	594.018273	-24.071823	241.186012	508.265935	-35.070348	218.305695	425.306852	-41.886861	274.180105	511.398121	-54.900011	212.394934	328.248773	-55.298321	235.677467	342.253464	-136.113182	159.155733	312.588810	-102.244502	397.650599	266.059007	-105.076690	314.571514	248.179308	-40.772076	81.864113	893.574768	-413.455825	164.598174	876.072772	-394.548757	179.062214	908.237658	-382.718730	230.315213	817.109502	-387.528938	310.426908	755.424993	-366.457327	295.544721	738.184310	-246.944172	7.051977	530.451196	-378.119648	17.894287	514.438147	-299.768405	-49.429988	544.977680	-335.502383	21.466579	382.910239	-400.239047	205.786231	691.363158	-403.177376	160.022805	616.941040	-389.148375	80.829709	576.347410	-389.662995	180.268068	598.525133	-362.465557	97.619832	338.061531	-344.937480	-218.283944	833.242935	-213.471219	-104.033273	80.413694	-418.336682	-103.986636	80.330877	-18.274160	
